<?xml version="1.0" encoding="UTF-8" standalone="no"?>
<svg
   version="1.0"
   width="300.000000pt"
   height="229.000000pt"
   viewBox="0 0 300.000000 229.000000"
   preserveAspectRatio="xMidYMid meet"
   id="svg12"
   sodipodi:docname="garpar.svg"
   inkscape:export-filename="garpar.svg"
   inkscape:export-xdpi="96"
   inkscape:export-ydpi="96"
   inkscape:version="1.4 (e7c3feb100, 2024-10-09)"
   xmlns:inkscape="http://www.inkscape.org/namespaces/inkscape"
   xmlns:sodipodi="http://sodipodi.sourceforge.net/DTD/sodipodi-0.dtd"
   xmlns="http://www.w3.org/2000/svg"
   xmlns:svg="http://www.w3.org/2000/svg">
  <defs
     id="defs12" />
  <sodipodi:namedview
     id="namedview12"
     pagecolor="#ffffff"
     bordercolor="#000000"
     borderopacity="0.25"
     inkscape:showpageshadow="2"
     inkscape:pageopacity="0.0"
     inkscape:pagecheckerboard="0"
     inkscape:deskcolor="#d1d1d1"
     inkscape:document-units="pt"
     inkscape:zoom="2.6168122"
     inkscape:cx="200.05257"
     inkscape:cy="152.66667"
     inkscape:window-width="1920"
     inkscape:window-height="1008"
     inkscape:window-x="0"
     inkscape:window-y="0"
     inkscape:window-maximized="1"
     inkscape:current-layer="g12" />
  <metadata
     id="metadata1">
Created by potrace 1.10, written by Peter Selinger 2001-2011
</metadata>
  <g
     transform="translate(0.000000,229.000000) scale(0.100000,-0.100000)"
     fill="#000000"
     stroke="none"
     id="g12">
    <path
       d="m 1327.8661,2131.0976 c -176,-28 -254,-54 -468.00002,-157 -172,-82 -314,-182 -408,-289 -60,-67 -92,-93 -167,-136 l -92,-52 -92,2 c -60.999997,1 -92.9999974,-2 -95.9999974,-9 -4,-14 24.0000004,-27 105.9999974,-47 56,-14 71,-14 154,0 51,9 94,17 95,18 1,2 11,24 22,50 15,35 26,48 38,45 38,-7 26,-44 -32,-96 l -56,-52 24,-32 c 40,-54 113,-197 147,-291 l 33,-87.99998 78,-40 c 43,-21 81,-39 84,-39 2,0 29,33 59,73 48,63.99998 56,80.99998 67,146.99998 11,71 11,77 -10,118 -21,42 -21,87 1,80 6,-2 28,-49 49,-105 21,-55 64,-144 96,-196 53.00002,-86.99998 66.00002,-100.99998 147.00002,-158.99998 64,-45 107,-85 149,-140 53,-69 61,-86 73,-150 20,-114 19,-122 -28,-167 -23,-23 -57,-46 -75,-52 -32,-10 -70,-59 -56,-73 4,-3 37,-6 75,-6 67,0 70,1 136,52 37,28 70,54 74,57 4,3 12,36 18,73 6,37 35,145 65,240 30,95 59,211 65,258 12,84.99998 12,84.99998 -25,189.99998 -82,237 -49,418 104,571 65,65 144,113 226,138 22,7 47,15 55,18 8,3 -11,13 -45,23 -90,26 -201,73 -322,134 -106,55 -229,95 -268,89 z m 53,-32 c 20,-10 55,-24 77,-31 22,-7 96,-40 165,-74 69,-33 147,-69 173,-79 26,-11 47,-23 47,-27 0,-5 -30,-25 -67,-46 -167,-92 -273,-273 -273,-465 0,-63 6,-94 53,-259 22,-80 23,-90 11,-169.99998 -7,-47 -36,-154 -63,-238 -28,-84 -55,-181 -61,-215 -13,-75 -11,-72 -79,-125 -99,-78 -144,-70 -58,11 31,29 59,65 63,81 8,32 -12,179 -28,211 -16,30 -109,146 -138,172 -14,13 -53,41 -87,64 -81,54 -150.00002,155.99998 -218.00002,324.99998 -49,121 -69,142 -107,107 -22,-20 -23,-47 -3,-103 13,-38 13,-50 0,-108 -16,-70 -75,-161.99998 -102,-161.99998 -9,0 -40,12 -68,26 -51,23.99998 -54,27.99998 -85,106.99998 -32,81 -89,198 -131,269 l -22,37 41,40 c 55,54 62,84 28,120 -25,26 -25,28 -9,51 47,72 194,196 318,269 90,52 320.00002,152 407.00002,176 51,14 111,32 133,39 22,8 41,15 43,15 1,1 19,-7 40,-18 z m -1028.00002,-571 c 0,-24 -41,-50 -77,-50 h -38 l 45,30 c 47,30 70,37 70,20 z"
       id="path1"
       style="stroke:none;stroke-opacity:1;fill:#306998;fill-opacity:1" />
    <path
       d="m 1963.8661,1853.0976 c -30,-9 -61,-21 -69,-28 -8,-6 -17,-11 -19,-9 -7,6 -53,-11 -53,-20 0,-5 -4,-7 -9,-4 -4,3 -16,-3 -26,-14 -10,-11 -22,-20 -27,-20 -15,0 -128,-122 -122,-131 3,-5 0,-9 -5,-9 -6,0 -11,-7 -11,-15 0,-8 -4,-15 -9,-15 -8,0 -12,-11 -26,-62 -2,-5 -4,-11 -5,-15 -1,-5 -2,-12 -1,-17 1,-4 -2,-13 -7,-20 -4,-6 -5,-27 -1,-46 5,-29 7,-31 9,-10 1,14 2,30 1,37 -1,6 3,14 9,18 5,3 10,16 10,28 1,24 50,116 90,167 51,66 180,139 275,156 144,26 236,16 289,-31 29,-25 50,-34 93,-40 58,-7 70,-16 194,-137 32,-32 132,-149 163,-193 7,-10 -6,-29 -47,-70 -58,-58 -65,-69 -47,-80 6,-3 10,1 10,9 0,9 3,16 8,16 4,1 34,25 66,55 l 59,53 -76,94 c -42,51 -118,134 -169,184 -93,92 -93,92 -151,96 -51,4 -63,9 -97,43 l -39,38 -103,4 c -71,2 -120,-2 -157,-12 z"
       id="path2"
       style="fill:#ffd43b;fill-opacity:1" />
    <path
       d="m 2805.8661,1328.0976 c -59,-12 -106,-28 -130,-44 -21,-14 -31,-26 -23,-26 13,0 13,-2 0,-10 -8,-5 -10,-10 -4,-10 6,0 22,8 35,18 25,19 84,37 155,46 l 42,6 6,-88 c 3,-48 8,-133 12,-190 4,-72.99998 16,-135.99998 39,-211.99998 17,-60 29,-113 26,-118 -3,-5 -36,-19 -72,-32 l -65,-23 -62,31 c -34,17 -77,39 -95,50 -31,20 -121,56 -202,82 -22,7 -46,15 -52,17 -7,3 -13,0 -13,-6 0,-6 7,-11 15,-11 8,0 15,-5 15,-12 0,-6 3,-8 7,-5 3,4 11,3 17,-3 7,-5 48,-22 91,-39 44,-16 124,-54 178,-84 l 98,-54 82,30 c 45,16 85,35 89,41 12,17 9,28 -4,20 -8,-5 -9,0 -5,15 3,12 -7,66 -23,119 -31,103 -42,203.99998 -48,449.99998 -1,34 -5,62 -9,61 -5,0 -49,-9 -100,-19 z"
       id="path3"
       style="fill:#ffd43b;fill-opacity:1" />
    <path
       d="m 1622.8661,1129.0976 c 0,-19 270,-270.99998 290,-270.99998 19,0 10,-14 -41,-67 l -52,-52 27,-55 c 14,-31 38,-82 53,-113 29,-63 179,-263 197,-263 6,0 58,-7 116,-15 141,-19 141,-19 107,112 -26,100 -34,139 -43,207 -3,21 -12,45 -19,53 -13,12 -14,10 -10,-14 2,-15 7,-58 10,-94 3,-37 16,-104 30,-149 14,-46 25,-86 25,-88 0,-9 -156,7 -192,20 -46,16 -169,169 -198,246 -11,29 -29,71 -40,92 -26,52 -25,61 9,96 16,17 33,42 37,57 5,24 -1,34 -47,80 -76,74 -167,154.99998 -193,172.99998 -13,8 -29,25 -36,39 -16,30 -30,33 -30,6 z"
       id="path4"
       style="fill:#ffd43b;fill-opacity:1" />
    <path
       d="m 852.86608,1105.0976 c 0,-9 18,-48 39,-89 22,-39.99998 78,-157.99998 125.00002,-260.99998 l 86,-188 -40,-79 c -64.00002,-128 -53,-140 47,-52 53,45 73,72 99,130 19,40 34,78 34,85 0,7 -22,44 -48,84 -36,55 -68,86 -133,134 -74.00002,54 -91.00002,73 -134.00002,145.99998 -53,90 -75,116 -75,90 z M 1076.8661,818.09762 c 43,-32 125,-145 126,-172 0,-22 -57,-133 -78,-150 -14,-12 -15,-9 -8,22 12,50 9,78 -13,124 -89,193 -94,206 -78,206 6,0 30,-14 51,-30 z"
       id="path5"
       style="fill:#306998;fill-opacity:1" />
    <path
       d="m 2407.8661,768.09762 c -8,-13 -9,-13 34,-35 56,-28 219,-192 232,-234 6,-20 15,-40 20,-45 14,-16 10,-36 -7,-36 -9,0 -33,13 -53,29 -32,26 -137,66 -223,87 -42,10 -88,67 -88,110 0,37 -22,44 -28,9 -3,-10 0,-15 7,-11 6,4 11,2 11,-3 0,-6 -4,-11 -9,-11 -15,0 -1,-36 30,-73 25,-30 45,-40 132,-67 64,-20 122,-45 157,-69 110,-75 136,-60 93,55 -26,70 -35,83 -124,168 -100,95 -172,145 -184,126 z"
       id="path6"
       style="fill:#ffd43b;fill-opacity:1" />
  </g>
</svg>
